<?xml version="1.0" encoding="UTF-8"?>
<svg width="31px" height="33px" viewBox="0 0 31 33" version="1.1" xmlns="http://www.w3.org/2000/svg" xmlns:xlink="http://www.w3.org/1999/xlink">
    <!-- Generator: Sketch 49 (51002) - http://www.bohemiancoding.com/sketch -->
    <title>BCH</title>
    <desc>Created with Sketch.</desc>
    <defs></defs>
    <g id="Page-1" stroke="none" stroke-width="1" fill="none" fill-rule="evenodd">
        <g id="Home-Web-Final" transform="translate(-204.000000, -852.000000)">
            <g id="Coin-List" transform="translate(168.000000, 412.000000)">
                <g id="Bitcoin-Cash" transform="translate(29.000000, 436.000000)">
                    <g id="Name" transform="translate(7.000000, 2.000000)">
                        <g id="BCH" transform="translate(0.000000, 2.000000)">
                            <rect id="Rectangle-3" fill="#F1580B" x="0" y="0.941463415" width="30.7555556" height="31.3756098" rx="15.3777778"></rect>
                            <path d="M22.28716,14.6880834 C22.5885644,12.6327397 21.054572,11.5278355 18.9570431,10.79075 L19.6374506,8.00652668 L17.9761774,7.5841627 L17.3137501,10.2950154 C16.8770212,10.183994 16.4284633,10.0792477 15.9827443,9.97546687 L16.6499033,7.24675422 L14.9895764,6.82439024 L14.3086957,9.60764818 C13.9471996,9.52365809 13.5923279,9.44063339 13.2478657,9.35326439 L13.2497583,9.34457576 L10.958706,8.76098942 L10.5167724,10.5711208 C10.5167724,10.5711208 11.7493604,10.8592937 11.7233364,10.8771536 C12.3961733,11.0485127 12.5177761,11.5027351 12.4974301,11.8628305 L11.7223901,15.0346632 C11.76876,15.0467308 11.8288516,15.0641081 11.8950944,15.0911393 C11.8397344,15.077141 11.7805891,15.0616946 11.7195511,15.0467308 L10.6331703,19.4899998 C10.55084,19.698527 10.3421754,20.0113176 9.871852,19.8925731 C9.88841262,19.9171908 8.66434156,19.5850921 8.66434156,19.5850921 L7.8396195,21.5250702 L10.0014985,22.0748674 C10.4036865,22.1776829 10.7978308,22.2853253 11.1858239,22.3866927 L10.498319,25.2027744 L12.1576995,25.6251383 L12.8385802,22.8389842 C13.2918698,22.9644866 13.7319108,23.0803351 14.1624885,23.1894256 L13.4839737,25.9625468 L15.1452468,26.3849108 L15.8327518,23.5741388 C18.665575,24.1210398 20.7957522,23.9004452 21.6923948,21.2866156 C22.4149139,19.1820361 21.6564346,17.9680414 20.165973,17.1764107 C21.2514076,16.9210615 22.0690322,16.1926646 22.28716,14.6880834 Z M18.4914513,20.1179947 C17.9780701,22.2225741 14.504585,21.0848463 13.3784585,20.7995695 L14.2907156,17.0687682 C15.416842,17.355493 19.0280174,17.9231502 18.4914513,20.1179947 Z M19.0053057,14.6576732 C18.5368748,16.5720681 15.6458526,15.5994242 14.7080448,15.3609696 L15.5351326,11.9772308 C16.4729405,12.2156854 19.4931361,12.6607364 19.0053057,14.6576732 Z" id="Shape" fill="#FFFFFF" fill-rule="nonzero" transform="translate(15.082319, 16.604650) rotate(-30.000000) translate(-15.082319, -16.604650) "></path>
                        </g>
                    </g>
                </g>
            </g>
        </g>
    </g>
</svg>